<svg xmlns="http://www.w3.org/2000/svg" width="1000" height="143.662" 
viewBox="0 0 1000 143.662">
  <g id="heading_component" transform="translate(-384.998 -61.93)">
    <g id="heading_background" transform="translate(561.114 61.93)" 
fill="#fff" stroke="#707070" stroke-width="1">
      <rect width="823.884" height="143.284" stroke="none"/>
      <rect x="0.5" y="0.5" width="822.884" height="142.284" fill="none"/>
    </g>
    <g id="logo" transform="translate(384.998 61.93)">
      <g id="Group_863" data-name="Group 863">
        <path id="Path_1354" data-name="Path 1354" 
d="M.938,65.74l62.224,13.7V16.875Z" transform="translate(3.544 64.218)" 
fill="#fff"/>
        <path id="Path_1355" data-name="Path 1355" 
d="M63.162,0,.938,13.7,63.162,62.569Z" transform="translate(3.544)" 
fill="#fff"/>
        <path id="Path_1356" data-name="Path 1356" 
d="M16.875,53.549,78.62,102.414V4.688Z" transform="translate(63.775 
17.842)" fill="#fff"/>
        <path id="Path_1357" data-name="Path 1357" 
d="M15.937,0V62.566L77.686,13.7Z" transform="translate(60.231)" 
fill="#fff"/>
        <path id="Path_1358" data-name="Path 1358" 
d="M15.937,79.441l61.749-13.7L15.937,16.875Z" transform="translate(60.231 
64.218)" fill="#fff"/>
        <path id="Path_1359" data-name="Path 1359" 
d="M0,102.414,62.227,53.549,0,4.688Z" transform="translate(0 17.842)" 
fill="#fff"/>
      </g>
    </g>
    <path id="webexpo_workshops_heading" 
d="M40.514-19.092l-5.122-20.49-5.122,20.49H16.3L0-84.287H13.877l9.872,44.146,5.4-24.308L24.215-84.287H46.567L42.1-66.4l5.867,26.264,9.872-44.146H70.782l-16.3,65.194Zm50.013.931a17.574,17.574,0,0,1-12.759-4.983,16.636,16.636,0,0,1-5.122-12.433V-58.4a16.787,16.787,0,0,1,5.122-12.48A17.486,17.486,0,0,1,90.527-75.9a17.6,17.6,0,0,1,12.759,5.076A16.68,16.68,0,0,1,108.5-58.4V-41.91H85.125v6.333a5.128,5.128,0,0,0,1.537,3.772,5.241,5.241,0,0,0,3.865,1.537,5.4,5.4,0,0,0,3.912-1.537,5.052,5.052,0,0,0,1.583-3.772V-38H108.5v2.422a16.53,16.53,0,0,1-5.216,12.387A17.688,17.688,0,0,1,90.527-18.161Zm-5.4-33.994h10.9V-58.4a5.161,5.161,0,0,0-1.583-3.865A5.4,5.4,0,0,0,90.527-63.8a5.241,5.241,0,0,0-3.865,1.537A5.241,5.241,0,0,0,85.125-58.4ZM135.7-18.161a17.574,17.574,0,0,1-12.759-4.983,16.636,16.636,0,0,1-5.122-12.433V-93.6H130.3v18.813a18.335,18.335,0,0,1,6.8-1.118,16.5,16.5,0,0,1,11.828,4.517,15.293,15.293,0,0,1,4.75,11.6v24.215a16.53,16.53,0,0,1-5.216,12.387A17.688,17.688,0,0,1,135.7-18.161Zm-3.912-13.6a5.49,5.49,0,0,0,3.912,1.49,5.4,5.4,0,0,0,3.912-1.537,5.052,5.052,0,0,0,1.583-3.772V-58.4a5.161,5.161,0,0,0-1.583-3.865A5.4,5.4,0,0,0,135.7-63.8a5.241,5.241,0,0,0-3.865,1.537A5.241,5.241,0,0,0,130.3-58.4v22.818A5.372,5.372,0,0,0,131.786-31.759Zm31.2,12.666V-84.287H195.4V-71.62H176.025v13.6h17.509v12.666H176.025v13.6H195.4v12.666Zm35.671,0,11.549-27.94-11.549-27.94h13.6L217-61.562l4.75-13.411h13.6L223.8-47.033l11.549,27.94h-13.6L217-32.5l-4.75,13.411ZM240.474-.465V-58.488A16.636,16.636,0,0,1,245.6-70.922,17.574,17.574,0,0,1,258.356-75.9a17.688,17.688,0,0,1,12.759,5.029,16.53,16.53,0,0,1,5.216,12.387v24.215a15.293,15.293,0,0,1-4.75,11.6,16.5,16.5,0,0,1-11.828,4.517,18.336,18.336,0,0,1-6.8-1.118V-.465Zm13.97-31.293a5.49,5.49,0,0,0,3.912,1.49,5.4,5.4,0,0,0,3.912-1.537,5.161,5.161,0,0,0,1.583-3.865V-58.488a5.052,5.052,0,0,0-1.583-3.772,5.4,5.4,0,0,0-3.912-1.537,5.241,5.241,0,0,0-3.865,1.537,5.128,5.128,0,0,0-1.537,3.772V-35.67A5.49,5.49,0,0,0,254.444-31.759Zm49.082,13.6a17.574,17.574,0,0,1-12.759-4.983,16.636,16.636,0,0,1-5.122-12.433V-58.4a16.787,16.787,0,0,1,5.122-12.48A17.486,17.486,0,0,1,303.526-75.9a17.6,17.6,0,0,1,12.759,5.076A16.68,16.68,0,0,1,321.5-58.4v22.818a16.53,16.53,0,0,1-5.216,12.387A17.688,17.688,0,0,1,303.526-18.161Zm-3.912-13.6a5.49,5.49,0,0,0,3.912,1.49,5.4,5.4,0,0,0,3.912-1.537,5.052,5.052,0,0,0,1.583-3.772V-58.4a5.161,5.161,0,0,0-1.583-3.865,5.4,5.4,0,0,0-3.912-1.537,5.241,5.241,0,0,0-3.865,1.537,5.241,5.241,0,0,0-1.537,3.865v22.818A5.372,5.372,0,0,0,299.615-31.759ZM385.3-19.092l-5.122-20.49-5.122,20.49h-13.97l-16.3-65.194h13.877l9.872,44.146,5.4-24.308L369-84.287h22.352L386.882-66.4l5.868,26.264,9.872-44.146h12.946l-16.3,65.194Zm50.013.931a17.574,17.574,0,0,1-12.76-4.983,16.636,16.636,0,0,1-5.122-12.433V-58.4a16.788,16.788,0,0,1,5.122-12.48,17.486,17.486,0,0,1,12.76-5.029,17.6,17.6,0,0,1,12.759,5.076A16.68,16.68,0,0,1,453.287-58.4v22.818a16.53,16.53,0,0,1-5.216,12.387A17.688,17.688,0,0,1,435.312-18.161Zm-3.912-13.6a5.49,5.49,0,0,0,3.912,1.49,5.4,5.4,0,0,0,3.912-1.537,5.052,5.052,0,0,0,1.583-3.772V-58.4a5.161,5.161,0,0,0-1.583-3.865,5.4,5.4,0,0,0-3.912-1.537,5.241,5.241,0,0,0-3.865,1.537A5.241,5.241,0,0,0,429.91-58.4v22.818A5.372,5.372,0,0,0,431.4-31.759Zm31.2,12.666V-58.4a16.788,16.788,0,0,1,5.122-12.48,17.486,17.486,0,0,1,12.76-5.029h6.054V-63.8h-6.054a5.241,5.241,0,0,0-3.865,1.537A5.241,5.241,0,0,0,475.08-58.4v39.3ZM492.59-93.6h12.48v74.508H492.59Zm25.8,74.508L505.07-47.033l14.156-27.94h12.946L518.016-47.964l14.157,28.872ZM534.5-38.93h12.48v3.353a5.128,5.128,0,0,0,1.537,3.772,5.241,5.241,0,0,0,3.865,1.537,5.4,5.4,0,0,0,3.912-1.537,5.052,5.052,0,0,0,1.583-3.772,4.349,4.349,0,0,0-1.583-3.819,9.585,9.585,0,0,0-4.191-1.4,43.89,43.89,0,0,1-6.38-1.537,14.826,14.826,0,0,1-5.914-3.493A16.792,16.792,0,0,1,534.5-58.4a16.788,16.788,0,0,1,5.122-12.48A17.486,17.486,0,0,1,552.382-75.9a17.6,17.6,0,0,1,12.759,5.076A16.68,16.68,0,0,1,570.357-58.4v3.353h-12.48V-58.4a5.161,5.161,0,0,0-1.583-3.865,5.4,5.4,0,0,0-3.912-1.537,5.241,5.241,0,0,0-3.865,1.537A5.241,5.241,0,0,0,546.98-58.4a4.349,4.349,0,0,0,1.583,3.819,9.927,9.927,0,0,0,4.191,1.444,53.808,53.808,0,0,1,6.38,1.537,14.382,14.382,0,0,1,5.914,3.446,16.792,16.792,0,0,1,5.309,12.573,16.53,16.53,0,0,1-5.216,12.387,17.688,17.688,0,0,1-12.759,5.029,17.574,17.574,0,0,1-12.759-4.983A16.636,16.636,0,0,1,534.5-35.577Zm43.773,19.838V-93.6h12.48v18.813a18.335,18.335,0,0,1,6.8-1.118,16.494,16.494,0,0,1,11.828,4.517,15.293,15.293,0,0,1,4.75,11.6v40.7h-12.48V-58.4a5.161,5.161,0,0,0-1.583-3.865,5.4,5.4,0,0,0-3.912-1.537,5.241,5.241,0,0,0-3.865,1.537,5.241,5.241,0,0,0-1.537,3.865v39.3Zm63.052.931a17.574,17.574,0,0,1-12.76-4.983,16.636,16.636,0,0,1-5.122-12.433V-58.4a16.788,16.788,0,0,1,5.122-12.48,17.486,17.486,0,0,1,12.76-5.029,17.6,17.6,0,0,1,12.759,5.076A16.68,16.68,0,0,1,659.3-58.4v22.818a16.53,16.53,0,0,1-5.216,12.387A17.688,17.688,0,0,1,641.326-18.161Zm-3.912-13.6a5.49,5.49,0,0,0,3.912,1.49,5.4,5.4,0,0,0,3.912-1.537,5.052,5.052,0,0,0,1.583-3.772V-58.4a5.161,5.161,0,0,0-1.583-3.865,5.4,5.4,0,0,0-3.912-1.537,5.241,5.241,0,0,0-3.865,1.537,5.241,5.241,0,0,0-1.537,3.865v22.818A5.372,5.372,0,0,0,637.414-31.759Zm31.2,31.293V-58.488a16.636,16.636,0,0,1,5.122-12.433A17.574,17.574,0,0,1,686.5-75.9a17.688,17.688,0,0,1,12.759,5.029,16.53,16.53,0,0,1,5.216,12.387v24.215a15.294,15.294,0,0,1-4.75,11.6,16.5,16.5,0,0,1-11.828,4.517,18.336,18.336,0,0,1-6.8-1.118V-.465Zm13.97-31.293a5.49,5.49,0,0,0,3.912,1.49,5.4,5.4,0,0,0,3.912-1.537,5.161,5.161,0,0,0,1.583-3.865V-58.488a5.052,5.052,0,0,0-1.583-3.772A5.4,5.4,0,0,0,686.5-63.8a5.241,5.241,0,0,0-3.865,1.537,5.128,5.128,0,0,0-1.537,3.772V-35.67A5.49,5.49,0,0,0,682.585-31.759Zm30.269-7.171h12.48v3.353a5.128,5.128,0,0,0,1.537,3.772,5.241,5.241,0,0,0,3.865,1.537,5.4,5.4,0,0,0,3.912-1.537,5.052,5.052,0,0,0,1.583-3.772,4.349,4.349,0,0,0-1.583-3.819,9.585,9.585,0,0,0-4.191-1.4,43.888,43.888,0,0,1-6.38-1.537,14.827,14.827,0,0,1-5.914-3.493A16.792,16.792,0,0,1,712.854-58.4a16.788,16.788,0,0,1,5.122-12.48A17.486,17.486,0,0,1,730.735-75.9a17.6,17.6,0,0,1,12.759,5.076A16.68,16.68,0,0,1,748.71-58.4v3.353H736.23V-58.4a5.161,5.161,0,0,0-1.583-3.865,5.4,5.4,0,0,0-3.912-1.537,5.241,5.241,0,0,0-3.865,1.537,5.241,5.241,0,0,0-1.537,3.865,4.349,4.349,0,0,0,1.583,3.819,9.928,9.928,0,0,0,4.191,1.444,53.8,53.8,0,0,1,6.38,1.537A14.382,14.382,0,0,1,743.4-48.15a16.792,16.792,0,0,1,5.309,12.573,16.53,16.53,0,0,1-5.216,12.387,17.688,17.688,0,0,1-12.759,5.029,17.574,17.574,0,0,1-12.759-4.983,16.636,16.636,0,0,1-5.122-12.433Z" 
transform="translate(598.527 181.003)"/>
  </g>
</svg>

